<?xml version="1.0" standalone="no"?>
<!DOCTYPE svg PUBLIC "-//W3C//DTD SVG 20010904//EN"
 "http://www.w3.org/TR/2001/REC-SVG-20010904/DTD/svg10.dtd">
<svg version="1.0" xmlns="http://www.w3.org/2000/svg"
 width="515.000000pt" height="388.000000pt" viewBox="0 0 515.000000 388.000000"
 preserveAspectRatio="xMidYMid meet">

<g transform="translate(0.000000,388.000000) scale(0.100000,-0.100000)"
fill="#000000" stroke="none">
<path d="M0 1940 l0 -1940 2575 0 2575 0 0 1940 0 1940 -2575 0 -2575 0 0
-1940z m3420 589 c78 -12 203 -22 333 -26 181 -5 231 -3 398 17 232 29 243 27
247 -45 2 -28 -4 -86 -13 -130 -20 -93 -93 -336 -106 -349 -5 -6 -9 -16 -9
-24 0 -7 -25 -66 -56 -130 -174 -362 -426 -638 -719 -788 -159 -81 -305 -120
-486 -131 -102 -6 -299 11 -299 26 0 7 27 88 87 261 23 69 43 131 43 138 0 10
15 12 60 7 33 -3 86 -7 118 -10 140 -13 341 33 450 102 46 30 66 53 45 53 -7
0 -83 15 -488 99 -76 16 -80 18 -77 41 5 34 63 203 73 214 5 6 9 16 9 24 0 8
6 28 14 45 8 18 30 82 49 142 19 61 56 169 82 240 26 72 54 156 63 188 17 67
6 65 182 36z"/>
<path d="M3500 2064 c-42 -9 -109 -33 -148 -54 -44 -24 -108 -77 -100 -85 5
-5 84 -23 428 -97 257 -55 260 -55 260 -29 0 20 -26 83 -45 110 -49 67 -140
127 -225 148 -29 7 -145 11 -170 7z"/>
</g>
</svg>
