<?xml version="1.0" standalone="no"?>
<!DOCTYPE svg PUBLIC "-//W3C//DTD SVG 20010904//EN"
 "http://www.w3.org/TR/2001/REC-SVG-20010904/DTD/svg10.dtd">
<svg version="1.0" xmlns="http://www.w3.org/2000/svg"
 width="1000.000000pt" height="1000.000000pt" viewBox="0 0 1000.000000 1000.000000"
 preserveAspectRatio="xMidYMid meet">

<g transform="translate(0.000000,1000.000000) scale(0.100000,-0.100000)"
fill="#000000" stroke="none">
<path d="M2632 6443 c-19 -36 -222 -532 -222 -543 0 -5 9 -10 19 -10 14 0 28
21 56 87 20 48 41 91 48 95 16 10 228 10 244 0 7 -4 26 -41 44 -82 17 -41 36
-81 41 -87 14 -18 38 -16 38 2 0 17 -192 486 -219 535 -12 22 -38 24 -49 3z
m68 -145 c18 -46 39 -96 46 -113 34 -80 39 -75 -90 -75 -75 0 -116 4 -116 11
0 5 11 35 25 65 14 30 25 57 25 60 0 3 11 30 25 60 14 30 25 59 25 64 0 6 6
10 14 10 8 0 27 -34 46 -82z"/>
<path d="M2982 6178 c3 -275 4 -283 23 -283 18 0 20 8 25 105 l5 105 120 5
c68 3 129 10 142 17 30 18 58 60 73 110 25 83 -33 189 -117 212 -21 6 -91 11
-156 11 l-117 0 2 -282z m259 230 c78 -27 111 -114 73 -194 -25 -53 -57 -64
-179 -64 l-105 0 0 129 c0 94 3 131 13 134 24 10 165 7 198 -5z"/>
<path d="M3482 6192 c-62 -147 -112 -276 -112 -286 0 -11 6 -16 17 -14 10 2
30 33 49 78 51 119 37 110 173 110 83 0 122 -4 129 -12 5 -7 24 -48 42 -90 31
-74 53 -99 72 -80 7 7 -148 401 -209 530 -31 66 -43 50 -161 -236z m187 74
c28 -69 51 -132 51 -140 0 -14 -17 -16 -110 -16 -87 0 -110 3 -110 14 0 14 18
61 49 131 10 22 22 51 26 65 7 23 34 70 40 70 2 0 26 -56 54 -124z"/>
<path d="M4037 6436 c-62 -31 -98 -66 -128 -124 -34 -66 -34 -198 -1 -264 65
-125 189 -185 302 -145 55 19 105 52 128 84 20 28 20 29 2 41 -16 10 -22 7
-40 -18 -46 -65 -167 -91 -246 -54 -77 37 -143 160 -131 246 8 58 51 143 88
171 82 62 190 59 259 -9 61 -59 97 -38 40 24 -65 71 -183 92 -273 48z"/>
<path d="M4450 6174 c0 -266 1 -285 18 -282 15 3 18 20 22 133 l5 130 173 3
172 2 0 -135 c0 -128 1 -135 20 -135 20 0 20 7 20 285 0 278 0 285 -20 285
-19 0 -20 -7 -20 -124 0 -104 -3 -125 -16 -130 -9 -3 -80 -6 -159 -6 -79 0
-150 3 -159 6 -13 5 -16 26 -16 130 0 117 -1 124 -20 124 -20 0 -20 -7 -20
-286z"/>
<path d="M5026 6444 c-3 -9 -6 -130 -6 -269 0 -139 3 -260 6 -269 5 -14 31
-16 185 -16 l179 0 0 25 0 25 -160 0 -160 0 0 110 0 110 135 0 c128 0 135 1
135 20 0 18 -8 20 -132 22 l-133 3 0 105 0 105 158 3 c149 2 157 4 157 22 0
19 -7 20 -179 20 -154 0 -180 -2 -185 -16z"/>
<path d="M1510 6057 c-10 -12 -28 -33 -39 -46 -12 -13 -21 -27 -21 -31 0 -3
-9 -16 -20 -27 -10 -12 -36 -47 -56 -80 -21 -32 -56 -87 -79 -123 -115 -177
-261 -464 -330 -645 -70 -186 -120 -377 -139 -538 -3 -27 -8 -53 -12 -58 -3
-5 -24 6 -47 26 -22 19 -44 35 -48 35 -4 0 8 -27 26 -61 57 -100 82 -197 53
-200 -20 -2 -21 -2 -55 4 -41 8 -42 -3 -3 -25 32 -18 40 -38 16 -38 -18 0 -76
-33 -76 -43 0 -4 9 -3 19 3 25 13 121 13 121 0 0 -5 -42 -136 -93 -292 -120
-364 -126 -382 -120 -391 10 -17 23 8 53 105 17 57 36 117 41 133 55 175 193
580 219 640 5 11 27 70 49 130 21 61 45 124 51 140 15 36 11 25 110 268 45
110 94 227 109 260 16 34 38 85 51 112 68 152 274 553 311 607 11 14 19 32 19
39 0 7 7 20 16 30 24 27 17 34 -89 81 -12 5 -23 1 -37 -15z"/>
<path d="M1680 5971 c0 -6 -15 -32 -34 -58 -31 -44 -46 -70 -114 -193 -39 -70
-164 -319 -191 -380 -14 -30 -39 -86 -56 -125 -18 -38 -49 -110 -70 -160 -20
-49 -43 -103 -50 -120 -18 -40 -100 -251 -126 -323 -11 -31 -24 -66 -29 -77
-5 -11 -20 -51 -33 -90 -14 -38 -35 -97 -47 -130 -40 -106 -41 -121 -13 -145
32 -28 39 -20 12 14 -24 31 -22 32 74 40 102 8 219 62 255 117 9 14 4 15 -39
11 -55 -5 -64 7 -20 26 52 23 109 70 141 117 18 26 30 48 28 50 -2 3 -20 -6
-39 -19 -19 -12 -56 -30 -83 -39 -54 -19 -156 -23 -156 -7 0 6 5 10 12 10 7 0
53 20 103 44 174 85 294 227 389 461 15 39 32 79 36 90 23 57 23 57 -22 50
l-43 -6 30 22 c80 60 160 166 108 144 -35 -15 -63 -17 -63 -6 0 6 4 11 9 11
22 0 115 98 136 144 54 115 71 176 43 148 -7 -7 -20 -12 -30 -12 -10 0 -18 -4
-18 -10 0 -5 7 -7 15 -4 9 4 15 0 15 -9 0 -22 -27 -28 -46 -10 -12 12 -18 13
-23 4 -6 -9 -11 -8 -21 4 -7 8 -11 17 -9 18 2 2 26 16 52 31 54 31 104 94 154
195 l32 66 -42 19 c-23 11 -44 22 -47 25 -9 10 -54 29 -85 36 -16 4 -32 10
-35 15 -9 14 -60 24 -60 11z"/>
<path d="M2905 5658 c-3 -7 -4 -375 -3 -818 l3 -805 154 -3 c112 -2 157 1 168
10 14 11 15 78 11 540 -2 291 -1 525 2 520 4 -4 69 -232 145 -507 76 -275 144
-515 151 -532 l13 -33 159 0 c116 0 162 3 170 13 6 6 25 59 42 117 17 58 54
179 82 270 27 91 53 179 58 195 4 17 27 91 50 165 23 74 44 144 47 156 2 11
17 58 32 105 l28 84 -5 -537 c-4 -423 -2 -541 8 -553 10 -12 42 -15 176 -15
161 0 164 0 169 23 3 12 4 380 3 817 l-3 795 -239 3 c-258 3 -247 5 -265 -53
-33 -106 -114 -375 -121 -400 -14 -49 -36 -123 -75 -250 -20 -66 -47 -156 -60
-200 -53 -181 -73 -240 -81 -240 -7 0 -73 219 -162 542 -13 45 -23 81 -51 178
-6 22 -34 121 -62 220 -28 99 -56 186 -61 193 -8 9 -69 12 -245 12 -178 0
-235 -3 -238 -12z"/>
<path d="M2388 4853 c-4 -866 -3 -856 -55 -908 -48 -47 -86 -57 -203 -51 -58
3 -116 6 -130 8 l-25 3 0 -155 0 -154 35 -9 c68 -16 310 -12 379 6 160 43 267
138 329 295 l27 67 3 853 3 852 -180 0 -180 0 -3 -807z"/>
<path d="M8750 5615 c0 -23 4 -25 40 -25 l40 0 0 -146 0 -145 33 3 32 3 3 143
3 142 45 0 c41 0 45 2 42 23 -3 21 -7 22 -120 25 l-118 3 0 -26z"/>
<path d="M9050 5469 l0 -170 28 3 27 3 -2 129 c-2 107 0 126 11 110 7 -10 17
-37 23 -59 51 -182 52 -185 82 -185 27 0 29 4 66 125 21 68 42 122 47 119 4
-3 8 -59 8 -125 l0 -119 30 0 30 0 0 171 0 170 -47 -3 c-47 -3 -47 -3 -64 -53
-9 -27 -24 -77 -33 -110 -28 -98 -30 -101 -43 -73 -6 12 -16 41 -22 63 -9 34
-34 120 -47 163 -2 7 -21 12 -49 12 l-45 0 0 -171z"/>
<path d="M6055 5540 c-4 -6 -22 -54 -41 -106 -50 -142 -51 -143 -142 -199 -46
-28 -87 -57 -93 -65 -13 -22 -11 -144 3 -158 7 -7 40 -12 80 -12 l68 0 0 -288
c0 -331 9 -431 48 -511 52 -108 131 -161 270 -182 93 -14 213 -1 305 32 29 11
53 19 54 19 2 0 3 63 3 140 0 160 4 155 -94 125 -27 -8 -71 -15 -98 -15 -41 0
-54 5 -79 29 l-29 29 0 311 0 310 143 3 142 3 0 140 0 140 -142 3 -143 3 0
113 c0 63 -3 121 -6 130 -5 13 -26 16 -124 16 -70 0 -121 -4 -125 -10z"/>
<path d="M5145 5309 c-164 -15 -294 -90 -379 -219 -78 -118 -116 -258 -116
-430 0 -214 53 -363 170 -480 133 -133 325 -188 567 -161 115 13 242 46 288
77 24 16 25 19 25 149 0 148 -6 164 -52 141 -93 -49 -243 -86 -343 -86 -149 0
-259 88 -267 211 l-3 44 354 3 c241 1 359 6 368 13 30 25 10 304 -30 415 -84
234 -291 349 -582 323z m185 -308 c42 -33 73 -91 74 -140 l1 -36 -180 0 -180
0 -3 27 c-5 41 42 130 80 153 70 42 151 41 208 -4z"/>
<path d="M7139 5308 c-184 -17 -350 -130 -419 -286 -59 -132 -65 -166 -65
-362 0 -144 4 -196 16 -235 40 -123 101 -217 184 -283 84 -66 152 -95 280
-118 96 -17 163 -18 276 -3 97 12 130 21 217 56 l62 26 0 144 c0 165 2 162
-92 119 -74 -33 -84 -36 -168 -52 -128 -24 -214 -16 -296 28 -49 27 -96 111
-106 188 l-3 25 365 5 365 5 3 135 c3 161 -13 249 -65 351 -59 116 -155 196
-286 239 -55 18 -180 26 -268 18z m136 -279 c22 -6 54 -26 72 -45 34 -36 71
-140 55 -156 -4 -4 -89 -7 -188 -6 l-179 3 3 35 c3 47 41 119 73 143 46 33
104 42 164 26z"/>
<path d="M8412 5309 c-98 -12 -182 -61 -233 -136 -37 -53 -33 -55 -66 52 l-18
60 -140 0 -140 0 -3 -614 c-1 -445 1 -618 9 -627 9 -11 48 -14 169 -14 87 0
165 3 174 6 14 5 16 44 16 332 0 191 5 351 11 388 16 91 54 145 124 178 50 24
67 27 153 26 53 -1 103 -1 110 -1 9 1 12 42 12 171 0 168 0 170 -22 174 -43 9
-103 11 -156 5z"/>
</g>
</svg>
