<?xml version="1.0" encoding="UTF-8"?>
<svg version="1.1" xmlns="http://www.w3.org/2000/svg" width="225" height="225">
<path d="M0 0 C74.25 0 148.5 0 225 0 C225 74.25 225 148.5 225 225 C150.75 225 76.5 225 0 225 C0 150.75 0 76.5 0 0 Z " fill="#FDFDFD" transform="translate(0,0)"/>
<path d="M0 0 C1.12535156 0.36222656 2.25070313 0.72445313 3.41015625 1.09765625 C21.23118859 7.36369265 37.6290136 18.75388377 50 33 C50 33.66 50 34.32 50 35 C50.66 35 51.32 35 52 35 C53.68397281 37.21702895 55.23099237 39.42298573 56.75 41.75 C57.19811035 42.4315918 57.6462207 43.11318359 58.10791016 43.81542969 C64.08439729 53.05083854 68.47841259 62.59245148 72 73 C72.433125 74.15628906 72.433125 74.15628906 72.875 75.3359375 C76.54553717 85.39462109 76.18205872 95.91126235 76.1875 106.5 C76.19974609 107.75425781 76.21199219 109.00851563 76.22460938 110.30078125 C76.23585996 117.46365491 75.80117383 124.06134322 74 131 C73.83363037 131.66354492 73.66726074 132.32708984 73.49584961 133.01074219 C66.22141435 160.50056152 49.43873199 183.54121666 25.8671875 199.3984375 C23 201 23 201 17 203 C15.02 198.71 13.04 194.42 11 190 C16 186 16 186 18.625 184.3125 C39.78929297 170.32992084 52.47821581 150.23093665 59 126 C63.41549907 100.01154667 58.85981168 75.31704521 44.890625 53.1171875 C43 50 43 50 42 47 C41.34 47 40.68 47 40 47 C39.03609358 45.7646136 38.13067039 44.48353812 37.25 43.1875 C24.50814849 26.44407529 3.20552905 16.98342793 -16.80078125 12.3515625 C-32.02567979 10.67849673 -48.39438333 10.95929321 -62.875 16.234375 C-65 17 -65 17 -67.0625 17.578125 C-88.6986299 23.78260343 -104.97696309 40.9879854 -116.1796875 59.703125 C-127.57476316 80.34141654 -130.9555356 106.88883909 -125.04272461 129.82910156 C-118.15964092 153.2389477 -102.91319503 174.50915803 -81.5 186.625 C-80.00337557 187.42302972 -78.50349426 188.21498972 -77 189 C-76.36449219 189.34933594 -75.72898437 189.69867188 -75.07421875 190.05859375 C-59.25980931 198.47330022 -43.48692924 199.30829062 -26 199 C-25.43925781 197.21335938 -25.43925781 197.21335938 -24.8671875 195.390625 C-22.63772103 188.70483928 -19.8536419 182.24286279 -17.125 175.75 C-13.64544925 167.45227704 -10.236773 159.14090726 -7.07373047 150.71582031 C-6 148 -6 148 -4.79736328 145.88574219 C-2.63262519 140.76619625 -7.60966677 133.13343192 -9.50048828 128.33959961 C-10.23738909 126.46950378 -10.96835687 124.59707356 -11.69921875 122.72460938 C-14.28030441 116.15997823 -17.00526192 109.70848197 -19.96826172 103.30786133 C-21.16527161 100.63030938 -22.09961071 97.93463871 -22.9375 95.125 C-24.71655912 89.54093282 -27.05940499 84.36562037 -29.6328125 79.10546875 C-31 76 -31 76 -33 69 C-27.39 69 -21.78 69 -16 69 C-12.44093793 75.71137418 -9.72739647 82.38188584 -7.25 89.55859375 C-5.80567902 93.53498994 -4.06500605 97.30225847 -2.26171875 101.125 C-0.27018234 105.66299009 1.29432901 110.3422587 2.88671875 115.03125 C3.91787442 118.12297704 3.91787442 118.12297704 6 121 C7.85570072 116.37561393 9.70965326 111.7505301 11.5625 107.125 C11.83600281 106.44238098 12.10950562 105.75976196 12.39129639 105.05645752 C15.9641209 96.13584002 19.51589442 87.20863113 22.94360352 78.23095703 C24.16490486 75.05057569 25.47255956 72.05488089 27 69 C32.28 69 37.56 69 43 69 C40.5986284 76.47357564 37.8196893 83.76219798 34.9375 91.0625 C34.45651855 92.28461182 33.97553711 93.50672363 33.47998047 94.76586914 C29.88530488 103.87239539 26.15599644 112.91978723 22.36035156 121.94433594 C19.85989776 127.8973161 17.45115103 133.86195901 15.23046875 139.92578125 C14.13086066 142.67305607 12.94013588 145.34005265 11.703125 148.02734375 C8.80147999 154.36058291 6.17183998 160.79189499 3.5625 167.25 C3.07950439 168.43859619 2.59650879 169.62719238 2.09887695 170.85180664 C-0.16635951 176.43349264 -2.41076704 182.02188878 -4.60375977 187.63232422 C-12.91493743 208.80106264 -12.91493743 208.80106264 -21.84594727 214.09399414 C-36.10210357 220.09020813 -59.4548735 214.60050883 -73.34594727 209.06518555 C-89.88291588 201.88436179 -105.13299074 191.66574886 -117 178 C-117 177.34 -117 176.68 -117 176 C-117.66 176 -118.32 176 -119 176 C-127.58635884 165.47252949 -133.81047128 153.22173819 -138.17578125 140.40234375 C-138.72583769 138.79909867 -139.32885774 137.21307874 -139.98242188 135.64916992 C-143.40370455 126.74217897 -143.34449736 117.19657224 -143.31567383 107.78515625 C-143.31251455 105.63489962 -143.33605895 103.48602525 -143.36132812 101.3359375 C-143.48515616 75.03644854 -132.44902423 50.36522323 -115 31 C-114.21496094 30.10925781 -113.42992188 29.21851563 -112.62109375 28.30078125 C-85.06809997 -1.18723194 -38.31282111 -13.02721342 0 0 Z " fill="#50B38E" transform="translate(146,7)"/>
<path d="M0 0 C5.61 0 11.22 0 17 0 C20.55906207 6.71137418 23.27260353 13.38188584 25.75 20.55859375 C27.19432098 24.53498994 28.93499395 28.30225847 30.73828125 32.125 C32.72981766 36.66299009 34.29432901 41.3422587 35.88671875 46.03125 C36.91787442 49.12297704 36.91787442 49.12297704 39 52 C40.85570072 47.37561393 42.70965326 42.7505301 44.5625 38.125 C44.83600281 37.44238098 45.10950562 36.75976196 45.39129639 36.05645752 C48.9641209 27.13584002 52.51589442 18.20863113 55.94360352 9.23095703 C57.16490486 6.05057569 58.47255956 3.05488089 60 0 C65.28 0 70.56 0 76 0 C73.5986284 7.47357564 70.8196893 14.76219798 67.9375 22.0625 C67.45651855 23.28461182 66.97553711 24.50672363 66.47998047 25.76586914 C62.88530488 34.87239539 59.15599644 43.91978723 55.36035156 52.94433594 C52.85989776 58.8973161 50.45115103 64.86195901 48.23046875 70.92578125 C47.13086066 73.67305607 45.94013588 76.34005265 44.703125 79.02734375 C41.80147999 85.36058291 39.17183998 91.79189499 36.5625 98.25 C36.07950439 99.43859619 35.59650879 100.62719238 35.09887695 101.85180664 C32.83364049 107.43349264 30.58923296 113.02188878 28.39624023 118.63232422 C20.08506257 139.80106264 20.08506257 139.80106264 11.15405273 145.09399414 C-3.10210357 151.09020813 -26.4548735 145.60050883 -40.34594727 140.06518555 C-56.88291588 132.88436179 -72.13299074 122.66574886 -84 109 C-84 108.34 -84 107.68 -84 107 C-84.66 107 -85.32 107 -86 107 C-94.93923862 96.03987444 -106 79.4070263 -106 65 C-104.44240657 64.46467177 -102.87861955 63.94734622 -101.3125 63.4375 C-100.44238281 63.14746094 -99.57226562 62.85742188 -98.67578125 62.55859375 C-95.60659453 61.91787302 -93.91328956 61.80618994 -91 63 C-89.6640625 65.484375 -89.6640625 65.484375 -88.625 68.75 C-80.72820443 91.1651278 -65.00734765 109.03156185 -44 120 C-43.36449219 120.34933594 -42.72898438 120.69867188 -42.07421875 121.05859375 C-26.25980931 129.47330022 -10.48692924 130.30829062 7 130 C7.37382813 128.80890625 7.74765625 127.6178125 8.1328125 126.390625 C10.36227897 119.70483928 13.1463581 113.24286279 15.875 106.75 C19.35455075 98.45227704 22.763227 90.14090726 25.92626953 81.71582031 C27 79 27 79 28.20263672 76.88574219 C30.36737481 71.76619625 25.39033323 64.13343192 23.49951172 59.33959961 C22.76261091 57.46950378 22.03164313 55.59707356 21.30078125 53.72460938 C18.71969559 47.15997823 15.99473808 40.70848197 13.03173828 34.30786133 C11.83472839 31.63030938 10.90038929 28.93463871 10.0625 26.125 C8.28344088 20.54093282 5.94059501 15.36562037 3.3671875 10.10546875 C2 7 2 7 0 0 Z " fill="#0C2A41" transform="translate(113,76)"/>
<path d="M0 0 C5.93800827 4.13807708 11.04382025 9.30031624 14 16 C14 16.99 14 17.98 14 19 C12.25307205 19.67467562 10.50231475 20.33944156 8.75 21 C7.77546875 21.37125 6.8009375 21.7425 5.796875 22.125 C3 23 3 23 -1 23 C-2.37535339 21.02866014 -3.70211044 19.02318078 -5 17 C-9.58383716 12.4282574 -13.30553292 10.84813909 -19.75 10.75 C-25.83241994 10.83061038 -30.1155944 11.22936446 -34.68359375 15.6171875 C-40.55013057 22.17307757 -41.70919299 27.39995319 -41.44921875 36.21875 C-40.63513414 43.07121869 -37.21969309 46.88600658 -32.375 51.5 C-26.61012614 55.14097296 -19.3794485 54.60830073 -12.875 53.4375 C-8.67191279 51.33595639 -5.20386528 48.43325897 -2 45 C-1.67 44.01 -1.34 43.02 -1 42 C4.2584002 42.67415387 9.02638346 44.24265549 14 46 C12.07683311 54.50631511 6.96473426 60.01745294 0 65 C-3.25008165 66.65597132 -6.51413213 67.934372 -10 69 C-10.60714844 69.19207031 -11.21429688 69.38414062 -11.83984375 69.58203125 C-20.28365737 71.21582521 -29.28347406 70.78811273 -37 67 C-37.95519531 66.566875 -38.91039063 66.13375 -39.89453125 65.6875 C-49.38809434 60.52873364 -54.88612389 52.23593453 -58.25 42.3125 C-60.36058776 32.65323351 -59.99748688 22.32935422 -54.640625 13.84765625 C-41.4600758 -4.39449561 -20.38254305 -11.29931581 0 0 Z " fill="#0C2A40" transform="translate(100,80)"/>
<path d="M0 0 C10.78735911 16.18103867 13.36998544 34.61981453 13.25 53.6875 C13.26160156 55.54858398 13.26160156 55.54858398 13.2734375 57.44726562 C13.25839637 64.5504397 12.77435623 71.11748632 11 78 C10.83371094 78.66378662 10.66742188 79.32757324 10.49609375 80.01147461 C3.21531775 107.50134252 -13.55833834 130.53924579 -37.1328125 146.3984375 C-40 148 -40 148 -46 150 C-47.98 145.71 -49.96 141.42 -52 137 C-47 133 -47 133 -44.375 131.3125 C-23.21070703 117.32992084 -10.52178419 97.23093665 -4 73 C-0.68686217 53.49975178 -2.27906484 32.90332397 -9.9140625 14.671875 C-10.82143272 12.43935258 -11.49652074 10.34956989 -12 8 C-11.21753906 7.59007813 -10.43507812 7.18015625 -9.62890625 6.7578125 C-8.61699219 6.21898438 -7.60507813 5.68015625 -6.5625 5.125 C-5.55316406 4.59132813 -4.54382813 4.05765625 -3.50390625 3.5078125 C-0.89859558 2.24345886 -0.89859558 2.24345886 0 0 Z " fill="#98DEC0" transform="translate(209,60)"/>
<path d="M0 0 C1.3359375 2.484375 1.3359375 2.484375 2.375 5.75 C10.27179557 28.1651278 25.99265235 46.03156185 47 57 C47.63550781 57.34933594 48.27101562 57.69867188 48.92578125 58.05859375 C64.74019069 66.47330022 80.51307076 67.30829062 98 67 C98.66 64.69 99.32 62.38 100 60 C100.61875 60.45375 101.2375 60.9075 101.875 61.375 C106.0930587 63.56839052 110.33975586 64.23083349 115 65 C112.46121549 72.97903703 109.474036 77.76940905 102.22241211 82.04907227 C88.00242108 88.13353509 64.53734744 82.59740903 50.65405273 77.06518555 C34.11708412 69.88436179 18.86700926 59.66574886 7 46 C7 45.34 7 44.68 7 44 C6.34 44 5.68 44 5 44 C-3.93923862 33.03987444 -15 16.4070263 -15 2 C-13.44240657 1.46467177 -11.87861955 0.94734622 -10.3125 0.4375 C-9.44238281 0.14746094 -8.57226562 -0.14257812 -7.67578125 -0.44140625 C-4.60659453 -1.08212698 -2.91328956 -1.19381006 0 0 Z " fill="#325D56" transform="translate(22,139)"/>
<path d="M0 0 C5.28 0 10.56 0 16 0 C15.34 1.32 14.68 2.64 14 4 C14 3.34 14 2.68 14 2 C9.38 2.33 4.76 2.66 0 3 C0 2.01 0 1.02 0 0 Z " fill="#223B4F" transform="translate(173,76)"/>
</svg>
