<?xml version="1.0" encoding="UTF-8"?>
<svg version="1.1" xmlns="http://www.w3.org/2000/svg" width="200" height="200">
<path d="M0 0 C66 0 132 0 200 0 C200 66 200 132 200 200 C134 200 68 200 0 200 C0 134 0 68 0 0 Z " fill="#FDFEFD" transform="translate(0,0)"/>
<path d="M0 0 C1.18722656 0.49757813 2.37445313 0.99515625 3.59765625 1.5078125 C11.60881182 5.09144169 17.89604247 9.72585778 24 16 C24.54914063 16.51691406 25.09828125 17.03382812 25.6640625 17.56640625 C36.85186707 29.02343607 40.45815738 44.99409195 40.43164062 60.32519531 C40.08837028 79.45421217 31.3775182 94.59937728 18 108 C17.32582031 108.68578125 16.65164062 109.3715625 15.95703125 110.078125 C1.85593425 123.5178197 -19.37549793 134 -39 134 C-39 128.39 -39 122.78 -39 117 C-41.31 116.67 -43.62 116.34 -46 116 C-55.25074795 113.39688255 -63.23524002 109.64247697 -71 104 C-71.63292969 103.55140625 -72.26585938 103.1028125 -72.91796875 102.640625 C-85.17595745 93.10351708 -92.49550835 78.0657792 -95 63 C-96.49735444 47.4111045 -91.59502683 33.00411643 -82.125 20.6875 C-71.60355718 8.2872281 -58.68792826 0.95550328 -43 -3 C-42.09121094 -3.26151855 -42.09121094 -3.26151855 -41.1640625 -3.52832031 C-28.25595169 -6.34177587 -12.1296918 -5.11839679 0 0 Z " fill="#17B02C" transform="translate(127,14)"/>
<path d="M0 0 C3.62395405 1.99006525 4.33213722 2.52149225 5.9375 6.5 C5.5 9.9375 5.5 9.9375 3.5625 12.375 C-0.24212461 14.31613501 -3.35415466 14.59167678 -7.5 13.9375 C-12.7600011 12.14909962 -16.62752186 8.6740331 -19.5 3.9375 C-19.5 2.6175 -19.5 1.2975 -19.5 -0.0625 C-12.91298832 -3.46224796 -6.64683012 -2.89075302 0 0 Z " fill="#F6FCF7" transform="translate(137.5,75.0625)"/>
<path d="M0 0 C3.35815798 2.82390558 6.75024905 5.79998796 7.265625 10.33984375 C7.26046875 11.19707031 7.2553125 12.05429687 7.25 12.9375 C7.25515625 13.79214844 7.2603125 14.64679687 7.265625 15.52734375 C6.98713633 18.11974567 6.30669172 19.76514234 5 22 C-1.40196172 21.39028936 -5.23877852 19.08565701 -9.375 14.1875 C-11.31647953 10.37921324 -11.70266653 8.2159992 -11 4 C-7.70503051 0.22047618 -4.94820177 -0.92778783 0 0 Z " fill="#F6FBF7" transform="translate(88,32)"/>
<path d="M0 0 C2.4375 1.5625 2.4375 1.5625 4 4 C4.6085949 8.10801555 4.29890895 10.37727302 2.5 14.125 C-0.49413666 17.56825716 -3.71331333 20.31714058 -8 22 C-10.125 21.87890625 -10.125 21.87890625 -12 21 C-14.71993004 17.0113486 -14.78890582 12.64751449 -14 8 C-10.66290038 1.31339519 -7.41081244 -0.63886314 0 0 Z " fill="#F9FDFA" transform="translate(118,32)"/>
<path d="M0 0 C5.66664227 2.19122142 10.91104418 4.52412377 14 10 C14 11.32 14 12.64 14 14 C7.63386032 16.88951367 1.05755235 17.14658213 -5.5 14.6875 C-9.81818182 11.77272727 -9.81818182 11.77272727 -11 10 C-11.5 7.0625 -11.5 7.0625 -11 4 C-7.58821374 0.18682712 -5.02284943 -0.8529367 0 0 Z " fill="#F8FCF8" transform="translate(68,50)"/>
<path d="M0 0 C2.89704129 4.51938442 3.36985869 7.65604063 2.5859375 12.8125 C1.67934756 16.19710245 0.22741128 18.30010755 -2 21 C-5.05693322 22.52846661 -7.62984547 22.23242445 -11 22 C-13.4375 21.0625 -13.4375 21.0625 -15 19 C-15.91177273 15.02784228 -15.87447538 11.56327447 -13.859375 7.9609375 C-10.20336264 3.43902747 -6.04503574 0 0 0 Z " fill="#F6FBF7" transform="translate(93,85)"/>
<path d="M0 0 C-0.4867262 4.27729087 -1.57796349 6.02058516 -4.875 8.75 C-5.57367188 9.34296875 -6.27234375 9.9359375 -6.9921875 10.546875 C-10.24875233 12.90376628 -13.08877984 13.18015678 -17 13.25 C-18.299375 13.28867188 -18.299375 13.28867188 -19.625 13.328125 C-22 13 -22 13 -23.76953125 11.6953125 C-25 10 -25 10 -25.6875 6.625 C-24.95194124 2.74659927 -24.7596677 2.258744 -21.75 0.0625 C-14.9304322 -3.63295207 -6.92284541 -3.1513501 0 0 Z " fill="#F9FDFA" transform="translate(82,76)"/>
<path d="M0 0 C5.60795104 0.22889596 8.34479785 1.6158498 12.51953125 5.33203125 C14.95490227 8.07583976 15.90918914 10.37729696 16.4375 14 C16 17 16 17 13.9375 19.375 C10.22660635 21.42783478 8.1839616 21.6724224 4 21 C0.84045695 18.45862841 -0.71540886 16.85377341 -2 13 C-2.11766176 11.33631742 -2.17509083 9.66779197 -2.1875 8 C-2.20167969 7.13375 -2.21585937 6.2675 -2.23046875 5.375 C-2 3 -2 3 0 0 Z " fill="#F9FCF9" transform="translate(107,86)"/>
<path d="M0 0 C0.99 0 1.98 0 3 0 C3.33 2.97 3.66 5.94 4 9 C4.99 8.34 5.98 7.68 7 7 C10.28924289 7.13705179 12.28130237 7.42504189 14.875 9.5 C16.60138813 13.33641806 16.78553341 16.87411426 16 21 C13.8125 24.0625 13.8125 24.0625 11 26 C8.3125 26.4375 8.3125 26.4375 6 26 C5.34 25.34 4.68 24.68 4 24 C3.67 24.66 3.34 25.32 3 26 C2.01 26 1.02 26 0 26 C0 17.42 0 8.84 0 0 Z " fill="#515451" transform="translate(135,159)"/>
<path d="M0 0 C0.99 0 1.98 0 3 0 C3.33 0.66 3.66 1.32 4 2 C4.99 1.34 5.98 0.68 7 0 C10.1875 0.375 10.1875 0.375 13 1 C13 1.66 13 2.32 13 3 C13.70125 2.484375 14.4025 1.96875 15.125 1.4375 C18.64631452 -0.32315726 20.27045042 -0.07742543 24 1 C26 3 26 3 26.1953125 6.6953125 C26.182009 8.17200108 26.15814835 9.64862358 26.125 11.125 C26.11597656 11.87910156 26.10695312 12.63320312 26.09765625 13.41015625 C26.0740687 15.27357254 26.03819719 17.13682593 26 19 C25.01 19 24.02 19 23 19 C22.67 14.38 22.34 9.76 22 5 C19.525 4.505 19.525 4.505 17 4 C15.05909174 5.94090826 15.60080565 9.47293902 15.4375 12.0625 C15.35371094 13.35285156 15.26992187 14.64320313 15.18359375 15.97265625 C15.12300781 16.97167969 15.06242187 17.97070312 15 19 C13.68 19 12.36 19 11 19 C10.67 14.05 10.34 9.1 10 4 C8.35 4.33 6.7 4.66 5 5 C3.64908472 7.70183055 3.66141942 10.11808206 3.4375 13.125 C3.35371094 14.22070312 3.26992187 15.31640625 3.18359375 16.4453125 C3.12300781 17.28835937 3.06242187 18.13140625 3 19 C2.01 19 1.02 19 0 19 C0 12.73 0 6.46 0 0 Z " fill="#606360" transform="translate(105,166)"/>
<path d="M0 0 C1.9375 1.75 1.9375 1.75 3 4 C3 5.65 3 7.3 3 9 C-1.29 9 -5.58 9 -10 9 C-9.34 10.65 -8.68 12.3 -8 14 C-2.44946714 13.25640327 -2.44946714 13.25640327 3 12 C1.63016497 15.16115776 1.0109362 15.9927092 -2 18 C-3.9375 18.1171875 -3.9375 18.1171875 -6 17.875 C-6.680625 17.81054688 -7.36125 17.74609375 -8.0625 17.6796875 C-10.78367839 16.72508057 -11.59753949 15.49087312 -13 13 C-13.3984375 10.52734375 -13.3984375 10.52734375 -13.375 7.9375 C-13.38273438 7.08027344 -13.39046875 6.22304687 -13.3984375 5.33984375 C-12.92174293 2.54043154 -12.24356216 1.69057148 -10 0 C-6.20519658 -1.26493447 -3.87641726 -0.89988258 0 0 Z " fill="#494C49" transform="translate(168,167)"/>
<path d="M0 0 C2.5625 2.4375 2.5625 2.4375 4 5 C4 5.66 4 6.32 4 7 C2.0625 6.625 2.0625 6.625 0 6 C-0.33 5.34 -0.66 4.68 -1 4 C-3.99430646 3.08287977 -6.87831491 2.79261533 -10 3 C-12.7575937 5.08500987 -13.72086934 6.53970589 -14.37109375 9.94140625 C-14.60077135 13.60928788 -14.15598821 15.70050263 -12.4375 19 C-10.05688825 21.30727834 -10.05688825 21.30727834 -6.4375 21.5 C-3.08337767 21.28658745 -3.08337767 21.28658745 -1.125 19.625 C0.06481812 17.98821489 0.06481812 17.98821489 1 16 C1.99 16 2.98 16 4 16 C3.71897086 19.37234971 3.19628348 20.78639739 0.875 23.3125 C-2.77421016 25.4544277 -4.82055729 25.51326489 -9 25 C-12.83710223 23.67177231 -14.54519837 22.65188234 -16.875 19.3125 C-18.67419333 14.01487521 -18.67419333 9.98512479 -16.875 4.6875 C-12.65923101 -1.35510222 -6.71665406 -2.12842738 0 0 Z " fill="#4E514E" transform="translate(39,160)"/>
<path d="M0 0 C0.99 0 1.98 0 3 0 C3.06058594 0.91523438 3.12117188 1.83046875 3.18359375 2.7734375 C3.26738281 3.96195313 3.35117188 5.15046875 3.4375 6.375 C3.51871094 7.55835938 3.59992188 8.74171875 3.68359375 9.9609375 C3.81084936 12.91518901 3.81084936 12.91518901 5 15 C6.66611905 15.042721 8.33382885 15.04063832 10 15 C11.94090826 13.05909174 11.39919435 9.52706098 11.5625 6.9375 C11.64628906 5.64714844 11.73007813 4.35679687 11.81640625 3.02734375 C11.87699219 2.02832031 11.93757813 1.02929688 12 0 C12.99 0 13.98 0 15 0 C15 6.27 15 12.54 15 19 C13.68 18.67 12.36 18.34 11 18 C10.01 18.185625 9.02 18.37125 8 18.5625 C4.75641951 19.03552215 3.63739054 18.85594149 1 17 C-0.53266582 13.93466836 -0.10276471 10.73245728 -0.0625 7.375 C-0.05798828 6.66859375 -0.05347656 5.9621875 -0.04882812 5.234375 C-0.03703875 3.48954725 -0.01910324 1.744763 0 0 Z " fill="#575A57" transform="translate(85,166)"/>
<path d="M0 0 C0.99 0 1.98 0 3 0 C3.06058594 0.91523438 3.12117188 1.83046875 3.18359375 2.7734375 C3.26738281 3.96195313 3.35117187 5.15046875 3.4375 6.375 C3.51871094 7.55835938 3.59992187 8.74171875 3.68359375 9.9609375 C3.81084936 12.91518901 3.81084936 12.91518901 5 15 C6.66611905 15.042721 8.33382885 15.04063832 10 15 C11.94090826 13.05909174 11.39919435 9.52706098 11.5625 6.9375 C11.64628906 5.64714844 11.73007812 4.35679687 11.81640625 3.02734375 C11.87699219 2.02832031 11.93757813 1.02929688 12 0 C12.99 0 13.98 0 15 0 C15 6.27 15 12.54 15 19 C13.68 18.67 12.36 18.34 11 18 C10.01 18.185625 9.02 18.37125 8 18.5625 C4.75641951 19.03552215 3.63739054 18.85594149 1 17 C-0.53266582 13.93466836 -0.10276471 10.73245728 -0.0625 7.375 C-0.05798828 6.66859375 -0.05347656 5.9621875 -0.04882812 5.234375 C-0.03703875 3.48954725 -0.01910324 1.744763 0 0 Z " fill="#575A57" transform="translate(47,166)"/>
<path d="M0 0 C0.66 1.65 1.32 3.3 2 5 C-1.875 4.125 -1.875 4.125 -3 3 C-5.5 2.83333333 -5.5 2.83333333 -8 3 C-9.89885096 4.89885096 -9.12367506 7.57247903 -9.1328125 10.08984375 C-9.11686861 12.08634367 -9.11686861 12.08634367 -8 14 C-5.58380177 14.25030977 -5.58380177 14.25030977 -3 14 C-2.34 13.01 -1.68 12.02 -1 11 C-0.01 11 0.98 11 2 11 C1.52 15.56 1.52 15.56 -0.625 17.375 C-4.07164938 18.282013 -6.56602033 17.87410392 -10 17 C-12.37568659 15.16075877 -12.89226508 13.82546195 -13.27734375 10.875 C-13.42585917 7.26310505 -13.38538868 4.73407368 -11.6875 1.5 C-7.95519374 -1.81760557 -4.59203118 -0.77977888 0 0 Z " fill="#4A4D4A" transform="translate(80,167)"/>
<path d="M0 0 C2.42522207 2.42522207 2.29629254 3.1720679 2.3125 6.5 C2.33763672 7.69109375 2.33763672 7.69109375 2.36328125 8.90625 C2.24339844 9.5971875 2.12351563 10.288125 2 11 C-1 13 -1 13 -3.5625 12.75 C-6 12 -6 12 -8 10 C-8.55416667 3.90416667 -8.55416667 3.90416667 -6.8125 1.0625 C-4.37896796 -0.36405327 -2.77457104 -0.35571424 0 0 Z " fill="#F6F6F6" transform="translate(146,169)"/>
<path d="M0 0 C1.32 0.33 2.64 0.66 4 1 C6.68149993 0.61432869 6.68149993 0.61432869 9 0 C9.33 0.99 9.66 1.98 10 3 C8.35 3.33 6.7 3.66 5 4 C4.67 8.95 4.34 13.9 4 19 C2.68 19 1.36 19 0 19 C0 12.73 0 6.46 0 0 Z " fill="#5F625F" transform="translate(175,166)"/>
<path d="M0 0 C5.75 0.75 5.75 0.75 8 3 C8.14507695 5.74485593 8.18652423 8.38480543 8.125 11.125 C8.11597656 11.87910156 8.10695312 12.63320312 8.09765625 13.41015625 C8.0740687 15.27357254 8.03819719 17.13682593 8 19 C7.01 19 6.02 19 5 19 C4.67 14.38 4.34 9.76 4 5 C1.525 4.01 1.525 4.01 -1 3 C-0.67 2.01 -0.34 1.02 0 0 Z " fill="#555755" transform="translate(123,166)"/>
<path d="M0 0 C0.99 0 1.98 0 3 0 C3 0.99 3 1.98 3 3 C3.66 3 4.32 3 5 3 C4.34 8.28 3.68 13.56 3 19 C2.01 19 1.02 19 0 19 C0 12.73 0 6.46 0 0 Z " fill="#585A58" transform="translate(105,166)"/>
<path d="M0 0 C0.99 0 1.98 0 3 0 C3 6.27 3 12.54 3 19 C2.34 19 1.68 19 1 19 C1 17.68 1 16.36 1 15 C0.34 14.67 -0.32 14.34 -1 14 C-0.67 9.38 -0.34 4.76 0 0 Z " fill="#515451" transform="translate(97,166)"/>
<path d="M0 0 C0.99 0 1.98 0 3 0 C3 6.27 3 12.54 3 19 C2.34 19 1.68 19 1 19 C1 17.68 1 16.36 1 15 C0.34 14.67 -0.32 14.34 -1 14 C-0.67 9.38 -0.34 4.76 0 0 Z " fill="#515451" transform="translate(59,166)"/>
<path d="M0 0 C1.98 0 3.96 0 6 0 C6.66 1.32 7.32 2.64 8 4 C4.7 4 1.4 4 -2 4 C-1.34 2.68 -0.68 1.36 0 0 Z " fill="#F9F9F9" transform="translate(160,169)"/>
</svg>
