<?xml version="1.0" standalone="no"?>
<!DOCTYPE svg PUBLIC "-//W3C//DTD SVG 20010904//EN"
 "http://www.w3.org/TR/2001/REC-SVG-20010904/DTD/svg10.dtd">
<svg version="1.0" xmlns="http://www.w3.org/2000/svg"
 width="724.000000pt" height="424.000000pt" viewBox="0 0 724.000000 424.000000"
 preserveAspectRatio="xMidYMid meet">

<g transform="translate(0.000000,424.000000) scale(0.100000,-0.100000)"
fill="#000000" stroke="none">
<path d="M0 2120 l0 -2120 3615 0 3615 0 0 2120 0 2120 -3615 0 -3615 0 0
-2120z m5652 657 c68 -52 68 -54 68 -560 0 -419 -2 -455 -19 -493 -21 -47 -59
-77 -116 -93 -50 -14 -3819 -15 -3879 -1 -48 11 -84 36 -113 80 l-23 33 0 474
c0 508 -1 501 52 550 12 12 34 26 48 32 16 6 696 9 1985 8 l1960 -2 37 -28z"/>
<path d="M1675 2784 c-16 -8 -38 -23 -49 -32 -45 -40 -46 -57 -46 -532 0 -501
-1 -496 66 -546 l37 -29 1961 0 1961 0 30 23 c68 54 65 27 65 551 0 468 0 474
-22 509 -12 20 -38 42 -62 53 -40 18 -111 19 -1976 19 -1735 0 -1938 -2 -1965
-16z m3936 -83 l29 -29 0 -451 0 -451 -28 -31 -27 -31 -1785 1 c-982 0 -1856
0 -1943 0 -154 1 -159 2 -182 26 l-25 24 0 458 c0 419 2 460 18 479 9 12 24
24 32 27 8 3 885 6 1948 6 l1934 1 29 -29z"/>
<path d="M2293 2546 c-6 -7 -21 -34 -32 -59 -33 -72 -124 -105 -257 -94 -66 6
-73 5 -79 -13 -20 -62 58 -271 127 -339 43 -44 86 -61 149 -61 43 0 54 -4 71
-25 57 -73 199 -100 290 -56 25 12 49 29 52 37 4 9 -5 7 -24 -8 -34 -25 -142
-38 -154 -19 -7 10 2 48 25 108 7 19 3 23 -24 33 -39 13 -70 38 -87 69 -11 22
-11 23 6 16 27 -11 119 -41 187 -60 32 -9 55 -20 52 -25 -3 -5 0 -7 7 -5 8 3
14 14 15 24 2 19 -40 40 -109 57 -16 3 -25 11 -21 17 3 5 22 74 42 152 l37
142 -68 22 c-39 13 -88 39 -117 61 -54 43 -69 47 -88 26z m111 -237 c40 -32
31 -39 -26 -23 -87 25 -85 24 -68 34 25 16 66 11 94 -11z m-274 -39 c0 -21
-32 -34 -71 -28 -53 7 -18 34 64 47 4 0 7 -8 7 -19z m76 -136 c8 -31 0 -39
-48 -52 -42 -11 -45 -7 -24 33 26 50 62 60 72 19z"/>
<path d="M2588 2423 c7 -3 16 -2 19 1 4 3 -2 6 -13 5 -11 0 -14 -3 -6 -6z"/>
<path d="M2800 2422 c0 -4 9 -8 20 -8 11 0 20 4 20 8 0 4 -9 8 -20 8 -11 0
-20 -4 -20 -8z"/>
<path d="M2638 2413 c7 -3 16 -2 19 1 4 3 -2 6 -13 5 -11 0 -14 -3 -6 -6z"/>
<path d="M2728 2413 c6 -2 18 -2 25 0 6 3 1 5 -13 5 -14 0 -19 -2 -12 -5z"/>
<path d="M4546 2394 c-9 -8 -16 -19 -16 -23 0 -14 25 -31 46 -31 31 0 43 39
18 57 -23 17 -29 16 -48 -3z"/>
<path d="M3040 2215 l0 -175 35 0 35 0 0 60 0 60 49 0 c67 0 97 13 121 52 24
40 25 69 4 113 -22 48 -66 65 -163 65 l-81 0 0 -175z m161 105 c13 -7 19 -21
19 -45 0 -41 -29 -65 -77 -65 l-33 0 0 60 0 60 36 0 c19 0 44 -5 55 -10z"/>
<path d="M3330 2215 l0 -175 35 0 35 0 0 175 0 175 -35 0 -35 0 0 -175z"/>
<path d="M4940 2215 l0 -175 35 0 35 0 0 88 c0 73 3 92 18 105 50 46 82 3 82
-110 l0 -83 35 0 35 0 0 95 c0 65 -5 105 -15 124 -26 51 -110 61 -140 18 -14
-20 -15 -16 -15 46 l0 67 -35 0 -35 0 0 -175z"/>
<path d="M5240 2330 c0 -23 -4 -30 -20 -30 -15 0 -20 -7 -20 -25 0 -18 5 -25
20 -25 18 0 20 -7 20 -88 0 -110 17 -131 103 -124 27 3 21 41 -8 52 -24 9 -25
14 -25 85 0 73 1 75 25 75 20 0 25 5 25 25 0 20 -5 25 -25 25 -21 0 -25 5 -25
30 0 28 -3 30 -35 30 -32 0 -35 -2 -35 -30z"/>
<path d="M3513 2299 c-17 -5 -41 -22 -53 -37 l-22 -27 28 -3 c15 -2 37 2 49 8
32 17 70 9 70 -15 0 -15 -11 -21 -56 -30 -67 -14 -78 -20 -90 -52 -32 -84 75
-147 144 -86 15 15 17 15 17 0 0 -13 9 -17 35 -17 l35 0 0 99 c0 84 -3 102
-20 124 -17 21 -79 50 -100 46 -3 0 -19 -5 -37 -10z m77 -169 c0 -23 -6 -33
-26 -42 -51 -24 -84 34 -34 59 43 22 60 17 60 -17z"/>
<path d="M4463 2300 c-13 -5 -23 -14 -23 -20 0 -5 -4 -10 -10 -10 -5 0 -10 7
-10 15 0 10 -10 15 -30 15 l-30 0 0 -130 0 -130 35 0 35 0 0 89 c0 96 8 114
56 114 22 0 25 3 22 30 -3 34 -13 40 -45 27z"/>
<path d="M4723 2303 c-60 -11 -96 -98 -74 -180 19 -70 80 -100 142 -69 40 20
39 20 39 -5 0 -41 -18 -59 -60 -59 -21 0 -42 5 -45 10 -7 12 -75 14 -75 2 0
-5 9 -18 20 -30 53 -57 200 -41 216 24 4 14 7 88 8 165 l1 139 -32 0 c-23 0
-33 -5 -33 -15 0 -19 -9 -19 -29 -1 -20 17 -49 24 -78 19z m73 -61 c61 -40 24
-163 -43 -146 -44 12 -55 120 -15 144 20 11 43 12 58 2z"/>
<path d="M3727 2165 c25 -74 43 -141 39 -150 -3 -8 -16 -15 -30 -15 -17 0 -25
-7 -28 -25 -6 -31 -2 -35 38 -35 59 0 79 30 139 203 l54 157 -37 0 -37 0 -24
-87 c-22 -83 -41 -126 -41 -92 0 7 -10 51 -22 97 l-23 82 -36 0 -37 0 45 -135z"/>
<path d="M3954 2278 c3 -13 17 -71 32 -130 l27 -108 38 0 c37 0 39 2 49 43 6
23 17 60 24 82 l13 40 10 -35 c6 -19 16 -56 23 -82 12 -47 14 -48 51 -48 43 0
36 -14 85 170 8 30 17 63 20 73 4 14 -1 17 -30 17 -31 0 -37 -4 -42 -27 -16
-70 -34 -136 -37 -139 -2 -2 -9 20 -16 49 -28 113 -30 117 -66 117 -33 0 -33
-1 -50 -72 -10 -40 -21 -77 -25 -81 -4 -5 -15 28 -25 72 l-19 81 -34 0 c-31 0
-34 -2 -28 -22z"/>
<path d="M4540 2170 l0 -130 35 0 35 0 0 130 0 130 -35 0 -35 0 0 -130z"/>
<path d="M2605 2282 c3 -3 -5 -12 -17 -19 -22 -12 -21 -12 15 -13 48 0 75 -14
87 -46 5 -13 17 -24 26 -24 13 0 15 6 9 28 -9 39 -37 63 -84 72 -23 4 -39 5
-36 2z"/>
<path d="M2595 2210 c27 -12 43 -12 25 0 -8 5 -22 9 -30 9 -10 0 -8 -3 5 -9z"/>
<path d="M2670 2191 c0 -6 4 -13 10 -16 6 -3 7 1 4 9 -7 18 -14 21 -14 7z"/>
<path d="M2721 2067 c-13 -21 -12 -21 5 -5 10 10 16 20 13 22 -3 3 -11 -5 -18
-17z"/>
<path d="M2660 1995 c-19 -23 -8 -25 14 -4 11 11 15 19 9 19 -6 0 -16 -7 -23
-15z"/>
</g>
</svg>
